<mxfile host="app.diagrams.net" agent="Mozilla/5.0 (Windows NT 10.0; Win64; x64) AppleWebKit/537.36 (KHTML, like Gecko) Chrome/135.0.0.0 Safari/537.36" version="26.2.13">
  <diagram name="Page-1" id="BbA1T3SjbCqhhfl8h1EJ">
    <mxGraphModel dx="1190" dy="626" grid="1" gridSize="10" guides="1" tooltips="1" connect="1" arrows="1" fold="1" page="1" pageScale="1" pageWidth="450" pageHeight="500" background="none" math="0" shadow="0">
      <root>
        <mxCell id="0" />
        <mxCell id="1" parent="0" />
        <mxCell id="ur2AvoEmHNOuIayLEwYA-41" value="" style="rounded=0;whiteSpace=wrap;html=1;" parent="1" vertex="1">
          <mxGeometry x="80" width="760" height="440" as="geometry" />
        </mxCell>
        <mxCell id="ur2AvoEmHNOuIayLEwYA-29" value="" style="endArrow=none;dashed=1;html=1;dashPattern=1 3;strokeWidth=2;rounded=0;" parent="1" edge="1">
          <mxGeometry width="50" height="50" relative="1" as="geometry">
            <mxPoint x="100" y="380" as="sourcePoint" />
            <mxPoint x="820" y="380" as="targetPoint" />
          </mxGeometry>
        </mxCell>
        <mxCell id="ur2AvoEmHNOuIayLEwYA-24" value="" style="endArrow=none;dashed=1;html=1;dashPattern=1 3;strokeWidth=2;rounded=0;" parent="1" edge="1">
          <mxGeometry width="50" height="50" relative="1" as="geometry">
            <mxPoint x="100" y="340" as="sourcePoint" />
            <mxPoint x="820" y="340" as="targetPoint" />
          </mxGeometry>
        </mxCell>
        <mxCell id="ur2AvoEmHNOuIayLEwYA-5" value="" style="ellipse;whiteSpace=wrap;html=1;" parent="1" vertex="1">
          <mxGeometry x="280" y="170" width="120" height="80" as="geometry" />
        </mxCell>
        <mxCell id="ur2AvoEmHNOuIayLEwYA-6" value="&lt;font style=&quot;font-size: 14px;&quot;&gt;Average Past Wins&lt;/font&gt;" style="text;html=1;align=center;verticalAlign=middle;whiteSpace=wrap;rounded=0;" parent="1" vertex="1">
          <mxGeometry x="290" y="195" width="100" height="30" as="geometry" />
        </mxCell>
        <mxCell id="ur2AvoEmHNOuIayLEwYA-11" value="" style="ellipse;whiteSpace=wrap;html=1;" parent="1" vertex="1">
          <mxGeometry x="520" y="170" width="120" height="80" as="geometry" />
        </mxCell>
        <mxCell id="ur2AvoEmHNOuIayLEwYA-12" value="&lt;span style=&quot;font-size: 14px;&quot;&gt;Current Strength&lt;/span&gt;" style="text;html=1;align=center;verticalAlign=middle;whiteSpace=wrap;rounded=0;" parent="1" vertex="1">
          <mxGeometry x="530" y="195" width="100" height="30" as="geometry" />
        </mxCell>
        <mxCell id="ur2AvoEmHNOuIayLEwYA-15" value="" style="ellipse;whiteSpace=wrap;html=1;" parent="1" vertex="1">
          <mxGeometry x="400" y="320" width="120" height="80" as="geometry" />
        </mxCell>
        <mxCell id="ur2AvoEmHNOuIayLEwYA-16" value="&lt;span style=&quot;font-size: 14px;&quot;&gt;Game Outcome&lt;/span&gt;" style="text;html=1;align=center;verticalAlign=middle;whiteSpace=wrap;rounded=0;" parent="1" vertex="1">
          <mxGeometry x="410" y="345" width="100" height="30" as="geometry" />
        </mxCell>
        <mxCell id="ur2AvoEmHNOuIayLEwYA-21" value="" style="endArrow=classic;html=1;rounded=0;exitX=0.5;exitY=1;exitDx=0;exitDy=0;entryX=0.326;entryY=0.06;entryDx=0;entryDy=0;entryPerimeter=0;" parent="1" source="ur2AvoEmHNOuIayLEwYA-5" target="ur2AvoEmHNOuIayLEwYA-15" edge="1">
          <mxGeometry width="50" height="50" relative="1" as="geometry">
            <mxPoint x="460" y="310" as="sourcePoint" />
            <mxPoint x="510" y="260" as="targetPoint" />
          </mxGeometry>
        </mxCell>
        <mxCell id="ur2AvoEmHNOuIayLEwYA-22" value="" style="endArrow=classic;html=1;rounded=0;exitX=0.5;exitY=1;exitDx=0;exitDy=0;entryX=0.688;entryY=0.06;entryDx=0;entryDy=0;entryPerimeter=0;" parent="1" source="ur2AvoEmHNOuIayLEwYA-11" target="ur2AvoEmHNOuIayLEwYA-15" edge="1">
          <mxGeometry width="50" height="50" relative="1" as="geometry">
            <mxPoint x="460" y="310" as="sourcePoint" />
            <mxPoint x="510" y="260" as="targetPoint" />
          </mxGeometry>
        </mxCell>
        <mxCell id="ur2AvoEmHNOuIayLEwYA-25" value="" style="endArrow=none;dashed=1;html=1;dashPattern=1 3;strokeWidth=2;rounded=0;" parent="1" edge="1">
          <mxGeometry width="50" height="50" relative="1" as="geometry">
            <mxPoint x="100" y="20" as="sourcePoint" />
            <mxPoint x="820" y="20" as="targetPoint" />
          </mxGeometry>
        </mxCell>
        <mxCell id="ur2AvoEmHNOuIayLEwYA-26" value="" style="endArrow=none;dashed=1;html=1;dashPattern=1 3;strokeWidth=2;rounded=0;" parent="1" edge="1">
          <mxGeometry width="50" height="50" relative="1" as="geometry">
            <mxPoint x="100" y="20" as="sourcePoint" />
            <mxPoint x="100" y="340" as="targetPoint" />
          </mxGeometry>
        </mxCell>
        <mxCell id="ur2AvoEmHNOuIayLEwYA-27" value="" style="endArrow=none;dashed=1;html=1;dashPattern=1 3;strokeWidth=2;rounded=0;" parent="1" edge="1">
          <mxGeometry width="50" height="50" relative="1" as="geometry">
            <mxPoint x="820" y="20" as="sourcePoint" />
            <mxPoint x="820" y="340" as="targetPoint" />
          </mxGeometry>
        </mxCell>
        <mxCell id="ur2AvoEmHNOuIayLEwYA-28" value="&lt;font style=&quot;font-size: 16px;&quot;&gt;&lt;b&gt;Home Team&lt;/b&gt;&lt;/font&gt;" style="text;html=1;align=center;verticalAlign=middle;whiteSpace=wrap;rounded=0;" parent="1" vertex="1">
          <mxGeometry x="130" y="50" width="120" height="30" as="geometry" />
        </mxCell>
        <mxCell id="ur2AvoEmHNOuIayLEwYA-30" value="" style="endArrow=none;dashed=1;html=1;dashPattern=1 3;strokeWidth=2;rounded=0;" parent="1" edge="1">
          <mxGeometry width="50" height="50" relative="1" as="geometry">
            <mxPoint x="100" y="380" as="sourcePoint" />
            <mxPoint x="100" y="440" as="targetPoint" />
          </mxGeometry>
        </mxCell>
        <mxCell id="ur2AvoEmHNOuIayLEwYA-31" value="" style="endArrow=none;dashed=1;html=1;dashPattern=1 3;strokeWidth=2;rounded=0;" parent="1" edge="1">
          <mxGeometry width="50" height="50" relative="1" as="geometry">
            <mxPoint x="820" y="380" as="sourcePoint" />
            <mxPoint x="820" y="440" as="targetPoint" />
          </mxGeometry>
        </mxCell>
        <mxCell id="ur2AvoEmHNOuIayLEwYA-32" value="&lt;font style=&quot;font-size: 16px;&quot;&gt;&lt;b&gt;Away Team&lt;/b&gt;&lt;/font&gt;" style="text;html=1;align=center;verticalAlign=middle;whiteSpace=wrap;rounded=0;" parent="1" vertex="1">
          <mxGeometry x="130" y="400" width="120" height="30" as="geometry" />
        </mxCell>
        <mxCell id="ur2AvoEmHNOuIayLEwYA-36" value="" style="endArrow=classic;html=1;rounded=0;entryX=0.715;entryY=0.925;entryDx=0;entryDy=0;entryPerimeter=0;exitX=0.617;exitY=0.998;exitDx=0;exitDy=0;exitPerimeter=0;" parent="1" target="ur2AvoEmHNOuIayLEwYA-15" edge="1" source="ur2AvoEmHNOuIayLEwYA-41">
          <mxGeometry width="50" height="50" relative="1" as="geometry">
            <mxPoint x="560" y="440" as="sourcePoint" />
            <mxPoint x="500" y="410" as="targetPoint" />
          </mxGeometry>
        </mxCell>
        <mxCell id="ur2AvoEmHNOuIayLEwYA-38" value="" style="endArrow=classic;html=1;rounded=0;entryX=0.313;entryY=0.946;entryDx=0;entryDy=0;entryPerimeter=0;" parent="1" target="ur2AvoEmHNOuIayLEwYA-15" edge="1">
          <mxGeometry width="50" height="50" relative="1" as="geometry">
            <mxPoint x="370" y="440" as="sourcePoint" />
            <mxPoint x="430" y="410" as="targetPoint" />
          </mxGeometry>
        </mxCell>
        <mxCell id="t-DmeBNSrvYt_Hhn1wCg-1" value="Parameters" style="swimlane;fontStyle=0;childLayout=stackLayout;horizontal=1;startSize=30;horizontalStack=0;resizeParent=1;resizeParentMax=0;resizeLast=0;collapsible=1;marginBottom=0;whiteSpace=wrap;html=1;" vertex="1" parent="1">
          <mxGeometry x="255" y="50" width="170" height="90" as="geometry">
            <mxRectangle x="260" y="30" width="100" height="30" as="alternateBounds" />
          </mxGeometry>
        </mxCell>
        <mxCell id="t-DmeBNSrvYt_Hhn1wCg-2" value="Wins Last Season" style="text;strokeColor=none;fillColor=none;align=left;verticalAlign=middle;spacingLeft=4;spacingRight=4;overflow=hidden;points=[[0,0.5],[1,0.5]];portConstraint=eastwest;rotatable=0;whiteSpace=wrap;html=1;" vertex="1" parent="t-DmeBNSrvYt_Hhn1wCg-1">
          <mxGeometry y="30" width="170" height="20" as="geometry" />
        </mxCell>
        <mxCell id="t-DmeBNSrvYt_Hhn1wCg-3" value="Wins Second Last Season" style="text;strokeColor=none;fillColor=none;align=left;verticalAlign=middle;spacingLeft=4;spacingRight=4;overflow=hidden;points=[[0,0.5],[1,0.5]];portConstraint=eastwest;rotatable=0;whiteSpace=wrap;html=1;" vertex="1" parent="t-DmeBNSrvYt_Hhn1wCg-1">
          <mxGeometry y="50" width="170" height="20" as="geometry" />
        </mxCell>
        <mxCell id="t-DmeBNSrvYt_Hhn1wCg-4" value="Wins Third Last Season" style="text;strokeColor=none;fillColor=none;align=left;verticalAlign=middle;spacingLeft=4;spacingRight=4;overflow=hidden;points=[[0,0.5],[1,0.5]];portConstraint=eastwest;rotatable=0;whiteSpace=wrap;html=1;" vertex="1" parent="t-DmeBNSrvYt_Hhn1wCg-1">
          <mxGeometry y="70" width="170" height="20" as="geometry" />
        </mxCell>
        <mxCell id="t-DmeBNSrvYt_Hhn1wCg-5" value="Parameters" style="swimlane;fontStyle=0;childLayout=stackLayout;horizontal=1;startSize=30;horizontalStack=0;resizeParent=1;resizeParentMax=0;resizeLast=0;collapsible=1;marginBottom=0;whiteSpace=wrap;html=1;" vertex="1" parent="1">
          <mxGeometry x="495" y="60" width="170" height="70" as="geometry">
            <mxRectangle x="260" y="30" width="100" height="30" as="alternateBounds" />
          </mxGeometry>
        </mxCell>
        <mxCell id="t-DmeBNSrvYt_Hhn1wCg-6" value="Current Win %" style="text;strokeColor=none;fillColor=none;align=left;verticalAlign=middle;spacingLeft=4;spacingRight=4;overflow=hidden;points=[[0,0.5],[1,0.5]];portConstraint=eastwest;rotatable=0;whiteSpace=wrap;html=1;" vertex="1" parent="t-DmeBNSrvYt_Hhn1wCg-5">
          <mxGeometry y="30" width="170" height="20" as="geometry" />
        </mxCell>
        <mxCell id="t-DmeBNSrvYt_Hhn1wCg-7" value="Wins Against (Head-to-Head)" style="text;strokeColor=none;fillColor=none;align=left;verticalAlign=middle;spacingLeft=4;spacingRight=4;overflow=hidden;points=[[0,0.5],[1,0.5]];portConstraint=eastwest;rotatable=0;whiteSpace=wrap;html=1;" vertex="1" parent="t-DmeBNSrvYt_Hhn1wCg-5">
          <mxGeometry y="50" width="170" height="20" as="geometry" />
        </mxCell>
        <mxCell id="t-DmeBNSrvYt_Hhn1wCg-9" value="" style="endArrow=classic;html=1;rounded=0;exitX=0.5;exitY=0;exitDx=0;exitDy=0;entryX=0.494;entryY=0.95;entryDx=0;entryDy=0;entryPerimeter=0;" edge="1" parent="1" source="ur2AvoEmHNOuIayLEwYA-5" target="t-DmeBNSrvYt_Hhn1wCg-4">
          <mxGeometry width="50" height="50" relative="1" as="geometry">
            <mxPoint x="430" y="310" as="sourcePoint" />
            <mxPoint x="480" y="260" as="targetPoint" />
          </mxGeometry>
        </mxCell>
        <mxCell id="t-DmeBNSrvYt_Hhn1wCg-10" value="" style="endArrow=classic;html=1;rounded=0;exitX=0.5;exitY=0;exitDx=0;exitDy=0;entryX=0.501;entryY=1.02;entryDx=0;entryDy=0;entryPerimeter=0;" edge="1" parent="1" source="ur2AvoEmHNOuIayLEwYA-11" target="t-DmeBNSrvYt_Hhn1wCg-7">
          <mxGeometry width="50" height="50" relative="1" as="geometry">
            <mxPoint x="430" y="310" as="sourcePoint" />
            <mxPoint x="600" y="150" as="targetPoint" />
          </mxGeometry>
        </mxCell>
      </root>
    </mxGraphModel>
  </diagram>
</mxfile>
